<svg width="5283" height="5634" viewBox="0 0 5283 5634" fill="none" xmlns="http://www.w3.org/2000/svg">
<circle cx="2641.5" cy="2641.5" r="2641.21" fill="white"/>
<path d="M3795.56 2122.81L3674.5 2613.41H1489.07L1610.13 2122.81H3795.56ZM2591.34 4550.35L1552.79 3339.76L1559.16 2855.53H2068.88C2169.76 2855.53 2251.53 2832.7 2314.18 2787.03C2377.9 2741.37 2424.62 2683.5 2454.36 2613.41C2485.15 2543.32 2501.08 2471.11 2502.14 2396.78C2501.08 2282.09 2468.69 2184.4 2404.98 2103.69C2342.32 2022.98 2230.29 1982.63 2068.88 1982.63H1489.07L1635.62 1288.14H2068.88C2348.16 1288.14 2582.85 1327.43 2772.93 1406.01C2964.08 1483.53 3108.5 1598.22 3206.19 1750.07C3304.95 1900.86 3354.86 2086.7 3355.92 2307.58C3354.86 2499.79 3328.85 2663.32 3277.87 2798.18C3226.9 2931.99 3148.85 3046.14 3043.72 3140.65C2938.59 3235.16 2803.73 3319.59 2639.13 3393.92L2604.09 3409.85L3508.84 4518.49V4550.35H2591.34ZM3801.93 1288.14L3674.5 1791.49L1826.76 1797.86L1954.19 1288.14H3801.93Z" fill="black"/>
</svg>
